# xmcd CD database file
# Copyright (C) 1993-1996 Ti Kan
#
# Track frame offsets:
#	150
#	9766
#	20526
#	32574
#	40382
#	49275
#	58410
#	66842
#	77065
#	88943
#	101186
#	109663
#	121310
#	131067
#	141264
#	151741
#	161888
#	174404
#	188901
#	199828
#	211099
#	221981
#	234855
#	243722
#	259103
#	268089
#	277698
#	289736
#
# Disc length: 3977 seconds
#
# Revision: 1
# Processed by: cddbd v1.4b41PL1 Copyright (c) Steve Scherf et al.
# Submitted via: CDValet v3.01 - Copyright (c) 1997 Greg Leichner
#
DISCID=9f0f871c
DTITLE=Audrey and Alex - Audrey and Alex
DYEAR=1900
DGENRE=
TTITLE0=Hello!
TTITLE1=Captain Crazee
TTITLE2=Oh, What A Dream
TTITLE3=I Love To Go To School
TTITLE4=South Sea Island
TTITLE5=Mother Nature's Dream
TTITLE6=I Like Country Music
TTITLE7=Mumps and Measles
TTITLE8=I Sure Love A Good Party
TTITLE9=The Bluenose and the Pirates
TTITLE10=No!
TTITLE11=The Jungle Jamboree
TTITLE12=Smile
TTITLE13=The Back-to-School Shopping Blues
TTITLE14=Tell Me What's Goin' On
TTITLE15=Summer, the Season of Fun
TTITLE16=Spooks and Scary Monsters
TTITLE17=Salsa
TTITLE18=The Cranky Croc
TTITLE19=Oliver Jones
TTITLE20=I've Never Told A Lie
TTITLE21=Teach Your Mom and Dad
TTITLE22=Terry the Fireman
TTITLE23=The Lighthouse Keeper
TTITLE24=I Wanna Be Santa Claus
TTITLE25=Popcorn
TTITLE26=Be a Rock (Be a Winner)
TTITLE27=Good-Bye
EXTD=A compilation of tunes from a previous CD and new tunes added.\n\n
EXTT0=
EXTT1=
EXTT2=
EXTT3=
EXTT4=
EXTT5=
EXTT6=
EXTT7=
EXTT8=
EXTT9=
EXTT10=
EXTT11=
EXTT12=
EXTT13=
EXTT14=
EXTT15=
EXTT16=
EXTT17=
EXTT18=
EXTT19=
EXTT20=
EXTT21=
EXTT22=
EXTT23=
EXTT24=
EXTT25=
EXTT26=
EXTT27=
PLAYORDER=
